<?xml version="1.0" encoding="UTF-8"?>
<svg xmlns="http://www.w3.org/2000/svg" id="Layer_1" data-name="Layer 1" viewBox="0 0 24 24">
  <path fill="currentColor" d="M10.5,11c-4.373,0-5.449,6.156-5.493,6.418l-.097,.582h5.59c1.93,0,3.5-1.57,3.5-3.5,0-.091-.02-.177-.027-.267L23.127,5.024c1.146-1.148,1.146-3.016,0-4.164C22.548,.283,21.696-.04,20.963,0c-.807,.022-1.577,.38-2.128,.998L10.658,11.016c-.053-.002-.104-.016-.158-.016Zm0,6H6.122c.36-1.431,1.543-5,4.378-5,1.379,0,2.5,1.122,2.5,2.5s-1.121,2.5-2.5,2.5ZM19.596,1.646c.354-.396,.862-.632,1.411-.647,.491-.023,1.044,.2,1.413,.57,.757,.758,.757,1.992,0,2.75L13.698,13.091c-.374-.845-1.072-1.51-1.936-1.846L19.596,1.646Zm3.404,6.343v9.011h-6v6H1V2.5c0-.827,.673-1.5,1.5-1.5h13.75l.816-1H2.5C1.121,0,0,1.122,0,2.5V24H18.207l5.793-5.793V6.983l-1,1.006Zm-5,14.804v-4.793h4.793l-4.793,4.793Z"/>
</svg>
